<?xml version="1.0" standalone="no"?>
<!DOCTYPE svg PUBLIC "-//W3C//DTD SVG 20010904//EN"
 "http://www.w3.org/TR/2001/REC-SVG-20010904/DTD/svg10.dtd">
<svg version="1.0" xmlns="http://www.w3.org/2000/svg"
 width="512.000000pt" height="512.000000pt" viewBox="0 0 512.000000 512.000000"
 preserveAspectRatio="xMidYMid meet">

<g transform="translate(0.000000,512.000000) scale(0.100000,-0.100000)"
fill="#000000" stroke="none">
<path d="M1989 4926 c-37 -14 -1084 -740 -1132 -784 -54 -51 -72 -98 -72 -192
0 -103 -4 -95 172 -348 l134 -192 77 53 c42 30 370 258 727 507 358 248 656
457 663 464 10 10 -14 50 -119 202 -153 220 -164 233 -231 269 -61 33 -162 43
-219 21z"/>
<path d="M3350 4774 c-38 -44 -57 -20 160 -199 85 -71 163 -135 173 -144 17
-15 21 -13 53 21 19 21 34 41 34 45 -1 9 -360 305 -377 310 -6 2 -25 -13 -43
-33z"/>
<path d="M3072 4440 l-32 -39 386 -321 387 -320 33 37 c18 21 33 41 34 44 0 7
-754 632 -768 636 -4 2 -22 -15 -40 -37z"/>
<path d="M2820 4135 c-16 -19 -12 -27 64 -136 43 -62 83 -104 157 -164 54 -44
102 -81 107 -83 4 -1 23 15 40 37 l32 40 -117 97 c-291 241 -270 225 -283 209z"/>
<path d="M1410 2431 l-31 -40 148 -123 c81 -67 252 -208 378 -313 127 -105
236 -194 243 -199 12 -7 51 28 52 46 0 4 -17 32 -38 62 -28 39 -131 131 -372
330 -184 152 -338 276 -341 276 -4 0 -21 -18 -39 -39z"/>
<path d="M1143 2110 c-13 -15 -25 -35 -29 -43 -4 -11 50 -61 181 -171 103 -86
190 -156 193 -156 4 0 22 18 40 40 l33 39 -191 158 c-105 87 -194 159 -198
160 -4 1 -17 -11 -29 -27z"/>
<path d="M857 1765 c-16 -19 -27 -39 -25 -43 4 -11 764 -642 772 -642 10 0 65
64 66 76 0 12 -755 638 -773 641 -7 1 -25 -14 -40 -32z"/>
<path d="M580 1429 c-27 -34 -30 -43 -19 -54 8 -7 95 -79 193 -160 l179 -148
34 36 c18 20 33 41 33 45 0 8 -374 322 -383 322 -2 0 -18 -18 -37 -41z"/>
<path d="M395 991 c11 -11 238 -200 505 -421 538 -446 560 -461 676 -461 77 0
141 19 190 56 26 20 673 791 698 833 6 10 0 13 -27 10 -32 -3 -55 -28 -336
-366 -166 -199 -319 -375 -341 -391 -55 -40 -117 -55 -203 -49 -119 8 -75 -24
-861 626 l-221 182 -50 0 c-49 0 -49 0 -30 -19z"/>
<path d="M4355 809 c-100 -28 -258 -108 -351 -177 -88 -66 -250 -231 -237
-242 16 -16 742 -390 756 -390 41 0 41 16 -2 393 -23 199 -45 379 -48 400 -7
44 -14 45 -118 16z"/>
</g>
</svg>
