<?xml version="1.0" standalone="no"?>
<!DOCTYPE svg PUBLIC "-//W3C//DTD SVG 20010904//EN"
 "http://www.w3.org/TR/2001/REC-SVG-20010904/DTD/svg10.dtd">
<svg version="1.0" xmlns="http://www.w3.org/2000/svg"
 width="797.000000pt" height="369.000000pt" viewBox="0 0 797.000000 369.000000"
 preserveAspectRatio="xMidYMid meet">

<g transform="translate(0.000000,369.000000) scale(0.100000,-0.100000)"
fill="#000000" stroke="none">
<path d="M3595 3624 c-999 -63 -1876 -326 -2439 -732 -353 -253 -550 -521
-617 -837 -22 -102 -15 -284 15 -400 178 -687 1153 -1258 2476 -1449 449 -65
920 -79 1445 -45 507 33 1087 154 1515 315 205 78 227 88 395 172 261 130 451
261 624 427 213 206 323 390 382 640 18 76 15 277 -5 360 -82 341 -301 614
-707 882 -120 79 -411 231 -549 286 -460 184 -964 301 -1570 363 -148 15 -814
27 -965 18z m980 -38 c235 -24 413 -52 660 -101 957 -192 1694 -603 1993
-1110 96 -164 136 -305 136 -490 0 -157 -31 -291 -96 -419 -28 -55 -117 -194
-148 -231 -189 -224 -427 -405 -755 -571 -497 -251 -1086 -408 -1805 -481
-251 -25 -950 -25 -1200 0 -693 71 -1269 221 -1755 457 -504 245 -838 553
-980 902 -97 237 -85 530 30 758 176 349 546 655 1080 891 468 206 1085 353
1680 399 77 5 156 12 175 14 98 11 836 -3 985 -18z"/>
<path d="M3720 3534 c-796 -37 -1468 -191 -2025 -464 -574 -280 -919 -652
-984 -1060 -31 -188 16 -418 120 -593 131 -221 348 -424 640 -600 491 -295
1134 -483 1929 -564 245 -24 872 -25 1117 0 470 46 816 115 1193 236 208 66
334 117 525 211 282 138 453 257 636 439 241 241 348 471 349 747 0 317 -168
613 -499 877 -328 263 -749 456 -1307 602 -246 64 -602 122 -924 149 -173 15
-625 27 -770 20z m800 -39 c409 -40 692 -92 1017 -185 473 -135 793 -286 1110
-523 385 -287 578 -647 534 -998 -16 -127 -36 -193 -91 -304 -116 -232 -332
-450 -637 -643 -100 -63 -364 -193 -511 -251 -260 -102 -671 -217 -895 -250
-34 -5 -123 -19 -197 -30 -332 -49 -444 -56 -895 -56 -458 1 -542 6 -915 60
-849 124 -1590 443 -1981 852 -221 232 -321 453 -322 713 -2 333 180 641 536
908 295 222 643 388 1072 512 426 122 797 183 1320 214 136 8 709 -4 855 -19z"/>
<path d="M4164 2907 c-77 -56 -202 -146 -278 -200 -133 -96 -137 -99 -120
-118 33 -37 251 -89 374 -89 119 0 104 -13 345 285 49 61 94 113 99 117 6 4 8
9 6 11 -7 6 -271 97 -279 96 -3 0 -69 -46 -147 -102z m241 2 c36 -11 65 -24
65 -28 0 -7 -81 -110 -150 -189 l-44 -51 -56 31 c-30 18 -56 35 -58 40 -2 4
-10 8 -18 8 -8 0 -14 5 -14 11 0 6 -7 9 -15 5 -8 -3 -15 -1 -15 5 0 6 -8 8
-17 5 -22 -7 17 27 112 98 133 100 117 95 210 65z"/>
<path d="M3195 2994 c-366 -42 -565 -108 -687 -226 -96 -93 -115 -204 -57
-326 76 -158 323 -343 629 -470 273 -114 540 -185 895 -240 154 -23 199 -26
470 -26 268 -1 313 1 422 21 471 86 675 281 553 529 -53 110 -245 287 -375
346 -40 18 -42 1 -3 -40 83 -85 109 -190 69 -277 -71 -156 -397 -265 -793
-265 -622 0 -1276 239 -1403 512 -30 64 -33 139 -7 186 55 102 159 162 400
228 6 2 12 15 12 29 0 23 -3 25 -47 24 -27 -1 -61 -4 -78 -5z m-267 -146 c-79
-75 -103 -125 -103 -218 1 -63 5 -84 29 -130 39 -75 172 -203 273 -263 125
-73 327 -153 501 -197 28 -8 52 -17 52 -21 0 -4 10 -5 23 -2 48 11 -28 -23
-118 -52 -49 -16 -99 -36 -109 -45 -14 -10 -17 -11 -11 -1 6 10 2 12 -14 6
-11 -3 -26 -3 -33 2 -7 4 -22 9 -33 11 -39 6 -232 75 -326 118 -390 174 -614
396 -569 564 28 104 179 203 395 260 39 11 76 19 84 19 8 1 -10 -23 -41 -51z"/>
<path d="M3555 1674 c-178 -27 -328 -87 -389 -154 -20 -22 -36 -45 -36 -50 0
-7 220 -10 635 -10 473 0 635 3 635 12 0 6 -18 28 -41 50 -137 130 -500 199
-804 152z"/>
<path d="M2467 1053 c-2 -5 18 -77 45 -160 l49 -153 43 0 44 0 37 110 c20 61
40 110 44 110 4 0 23 -48 42 -107 l35 -108 47 -3 c26 -2 47 -1 47 2 0 2 20 69
45 148 25 78 45 149 45 156 0 9 -12 12 -37 10 l-38 -3 -30 -102 c-16 -57 -32
-103 -35 -103 -3 0 -21 46 -40 103 l-35 102 -47 3 -46 3 -32 -98 c-18 -54 -36
-102 -40 -106 -3 -4 -16 27 -28 70 -34 128 -37 133 -76 133 -19 0 -37 -3 -39
-7z"/>
<path d="M3035 1048 c-3 -8 -4 -79 -3 -158 l3 -145 43 -3 43 -3 -3 158 -3 158
-38 3 c-24 2 -39 -1 -42 -10z"/>
<path d="M3200 901 l0 -161 40 0 40 0 0 65 0 65 34 0 c30 0 42 -9 92 -65 54
-61 60 -65 101 -65 24 0 43 4 43 9 0 5 -26 37 -59 71 -44 47 -54 63 -42 67 65
20 89 53 73 101 -17 53 -49 65 -192 70 l-130 5 0 -162z m224 93 c22 -9 20 -51
-3 -64 -11 -5 -47 -10 -80 -10 l-61 0 0 40 0 40 64 0 c35 0 71 -3 80 -6z"/>
<path d="M3610 900 l0 -161 153 3 c149 3 152 3 155 26 3 22 2 22 -112 22
l-116 0 0 45 0 45 100 0 100 0 0 25 0 25 -100 0 -100 0 0 35 0 35 111 0 110 0
-3 28 -3 27 -147 3 -148 3 0 -161z"/>
<path d="M4337 1053 c-4 -3 -7 -75 -7 -160 l0 -153 155 0 155 0 0 25 0 25
-110 0 -110 0 0 45 0 45 100 0 100 0 0 25 0 25 -100 0 -100 0 0 35 0 35 105 0
105 0 0 30 0 30 -143 0 c-79 0 -147 -3 -150 -7z"/>
<path d="M4763 1045 c-56 -24 -71 -85 -30 -123 14 -14 59 -31 113 -45 70 -17
90 -26 93 -41 5 -28 -26 -46 -77 -46 -36 0 -49 5 -72 30 -27 29 -52 36 -84 24
-19 -7 -11 -30 22 -66 45 -48 179 -60 242 -20 37 23 49 43 50 79 0 47 -40 75
-137 96 -96 21 -117 38 -78 63 32 21 93 13 117 -16 19 -23 88 -29 88 -7 0 23
-32 59 -66 73 -42 18 -139 17 -181 -1z"/>
<path d="M5140 1042 c-57 -28 -67 -101 -18 -131 13 -8 61 -24 108 -35 67 -17
86 -25 89 -40 5 -28 -26 -46 -77 -46 -35 0 -49 6 -74 30 -45 45 -109 38 -85
-9 28 -55 105 -85 192 -75 80 10 124 45 125 101 0 46 -41 76 -135 96 -108 24
-130 44 -75 67 38 16 97 5 113 -20 13 -22 71 -28 82 -10 11 17 -24 61 -60 76
-48 20 -142 18 -185 -4z"/>
<path d="M3990 895 l0 -155 140 0 140 0 0 25 c0 24 -1 24 -97 27 l-98 3 -3
128 -3 127 -39 0 -40 0 0 -155z"/>
</g>
</svg>
